<svg xmlns="http://www.w3.org/2000/svg" xmlns:xlink="http://www.w3.org/1999/xlink" width="400" zoomAndPan="magnify" viewBox="0 0 300 74.999997" height="100" preserveAspectRatio="xMidYMid meet" version="1.0"><defs><g/></defs><path stroke-linecap="butt" transform="matrix(1.044663, 0, 0, 1.044663, 78.788056, 5.873021)" fill="none" stroke-linejoin="miter" d="M 23.565681 11.728164 C 27.87329 11.728164 31.907934 12.827502 35.673353 15.033656 L 30.232753 23.132859 C 28.348174 21.352979 26.183152 20.463039 23.733947 20.463039 C 22.451386 20.463039 21.284742 20.825746 20.234014 21.554898 C 19.190765 22.284051 18.67101 23.185209 18.67101 24.250893 C 18.67101 25.032395 19.044934 25.720416 19.789044 26.307478 C 20.536893 26.898278 21.905456 27.477861 23.890995 28.042487 C 26.590729 28.857642 28.542615 29.646623 29.750391 30.409429 C 30.965645 31.175974 31.907934 32.114524 32.577259 33.236297 C 33.254062 34.354331 33.590594 35.752809 33.590594 37.42799 C 33.590594 39.839803 32.96988 42.401185 31.728451 45.108398 C 30.487022 47.808132 28.452873 49.961937 25.622265 51.566073 C 22.795396 53.166469 19.445033 53.996581 15.571176 54.067627 C 10.597981 54.067627 6.118367 52.538276 2.136072 49.483314 L 7.943118 41.047579 C 10.721376 43.825837 13.585638 45.213097 16.535901 45.213097 C 18.166212 45.213097 19.542254 44.790562 20.664027 43.938014 C 21.782061 43.077988 22.342948 41.993607 22.342948 40.684872 C 22.342948 38.972298 20.637852 37.659823 17.223922 36.73623 C 13.103275 35.5995 10.433455 34.384245 9.2182 33.094206 C 8.010424 31.78921 7.408406 30.0542 7.408406 27.885439 C 7.408406 23.334778 8.963932 19.509532 12.071244 16.40222 C 15.186034 13.28369 19.018759 11.728164 23.565681 11.728164 Z M 61.541445 12.793849 L 60.150446 21.648379 L 51.516531 21.648379 L 46.554554 52.998203 L 36.099627 52.998203 L 41.061604 21.648379 L 32.427689 21.648379 L 33.81121 12.793849 Z M 69.913613 12.793849 L 66.604382 34.017799 C 66.282807 35.936032 66.12202 37.499036 66.12202 38.703072 C 66.12202 40.733482 66.559511 42.274051 67.427016 43.324778 C 68.301999 44.368027 69.808914 44.887782 71.944023 44.887782 C 74.539058 44.887782 76.517119 44.046452 77.881943 42.363793 C 79.250506 40.669915 80.204014 38.011312 80.731247 34.380506 L 84.104045 12.793849 L 94.547755 12.793849 L 90.928166 35.932292 C 90.21397 40.625044 88.987498 44.203501 87.241271 46.660184 C 85.498783 49.10565 83.176713 50.956576 80.275059 52.205483 C 77.384623 53.446913 74.127742 54.067627 70.496935 54.067627 C 65.594786 54.067627 61.825628 53.009421 59.196939 50.889269 C 56.56825 48.772857 55.252036 45.69172 55.252036 41.645858 C 55.252036 40.901748 55.28569 40.082854 55.356735 39.200392 C 55.424042 38.302973 56.792605 29.504531 59.458686 12.793849 Z M 110.383454 12.793849 C 113.726338 12.793849 116.721473 13.53048 119.368858 15.007481 C 122.023721 16.484483 124.106481 18.518632 125.617135 21.113667 C 127.12779 23.708703 127.883117 26.483222 127.883117 29.433486 C 127.883117 33.486827 126.787519 37.338248 124.600061 40.984011 C 122.412603 44.618557 119.454861 47.531428 115.723095 49.718886 C 111.991329 51.906344 108.095037 52.998203 104.041696 52.998203 L 89.159504 52.998203 L 95.516219 12.793849 Z M 100.997951 44.147412 L 103.028361 44.147412 C 107.264924 44.147412 110.630244 42.894765 113.131799 40.39695 C 115.640831 37.887917 116.893478 34.642253 116.893478 30.656219 C 116.893478 27.949006 116.048409 25.769026 114.354531 24.12002 C 112.671872 22.471013 110.159099 21.648379 106.816215 21.648379 L 104.576408 21.648379 Z M 140.405846 12.793849 L 134.064088 52.998203 L 123.609161 52.998203 L 129.965876 12.793849 Z M 181.260829 29.003473 C 181.260829 32.873591 180.142795 36.893278 177.902988 41.058796 C 175.663181 45.216836 172.49978 48.469978 168.409047 50.814485 C 164.322053 53.155251 159.928441 54.329374 155.235689 54.329374 C 149.581952 54.329374 144.997638 52.66541 141.471531 49.341222 C 137.956641 46.017034 136.199197 41.638379 136.199197 36.205257 C 136.199197 31.725643 137.380798 27.593778 139.740261 23.809662 C 142.110942 20.01433 145.330431 17.007977 149.402468 14.786866 C 153.470766 12.565755 157.673676 11.45146 162.003721 11.45146 C 165.458783 11.45146 168.68949 12.199309 171.692103 13.691267 C 174.694716 15.186965 177.039222 17.258506 178.721882 19.917109 C 180.41576 22.564494 181.260829 25.593282 181.260829 29.003473 Z M 156.836086 44.199761 C 159.259116 44.199761 161.487706 43.534176 163.529333 42.206744 C 165.5747 40.868095 167.20501 39.148042 168.409047 37.039109 C 169.616823 34.918957 170.218841 32.82872 170.218841 30.760918 C 170.218841 28.199535 169.254116 26.030774 167.317187 24.250893 C 165.380259 22.471013 163.058188 21.581073 160.350975 21.581073 C 158.260738 21.581073 156.181718 22.156916 154.113916 23.301125 C 152.057331 24.437855 150.393368 25.967206 149.129503 27.885439 C 147.869378 29.803671 147.241185 31.93504 147.241185 34.275807 C 147.241185 37.158764 148.134864 39.533185 149.922223 41.399068 C 151.71706 43.26495 154.024174 44.199761 156.836086 44.199761 Z M 156.836086 44.199761 " stroke="#000000" stroke-width="5.399997" stroke-opacity="1" stroke-miterlimit="4"/><g fill="#ffffff" fill-opacity="1"><g transform="translate(78.788056, 61.240158)"><g><path d="M 24.625 -43.125 C 29.125 -43.125 33.34375 -41.972656 37.28125 -39.671875 L 31.59375 -31.203125 C 29.625 -33.054688 27.359375 -33.984375 24.796875 -33.984375 C 23.453125 -33.984375 22.234375 -33.601562 21.140625 -32.84375 C 20.046875 -32.082031 19.5 -31.144531 19.5 -30.03125 C 19.5 -29.21875 19.890625 -28.503906 20.671875 -27.890625 C 21.453125 -27.273438 22.882812 -26.671875 24.96875 -26.078125 C 27.789062 -25.222656 29.832031 -24.394531 31.09375 -23.59375 C 32.351562 -22.800781 33.335938 -21.816406 34.046875 -20.640625 C 34.753906 -19.472656 35.109375 -18.015625 35.109375 -16.265625 C 35.109375 -13.742188 34.457031 -11.070312 33.15625 -8.25 C 31.851562 -5.425781 29.722656 -3.175781 26.765625 -1.5 C 23.816406 0.164062 20.316406 1.035156 16.265625 1.109375 C 11.066406 1.109375 6.390625 -0.484375 2.234375 -3.671875 L 8.296875 -12.484375 C 11.191406 -9.585938 14.179688 -8.140625 17.265625 -8.140625 C 18.972656 -8.140625 20.410156 -8.582031 21.578125 -9.46875 C 22.753906 -10.363281 23.34375 -11.5 23.34375 -12.875 C 23.34375 -14.65625 21.5625 -16.03125 18 -17 C 13.6875 -18.1875 10.898438 -19.457031 9.640625 -20.8125 C 8.378906 -22.164062 7.75 -23.976562 7.75 -26.25 C 7.75 -31 9.375 -35 12.625 -38.25 C 15.875 -41.5 19.875 -43.125 24.625 -43.125 Z M 24.625 -43.125 "/></g></g></g><g fill="#ffffff" fill-opacity="1"><g transform="translate(107.143769, 61.240158)"><g><path d="M 35.9375 -42.015625 L 34.484375 -32.765625 L 25.46875 -32.765625 L 20.28125 0 L 9.359375 0 L 14.546875 -32.765625 L 5.515625 -32.765625 L 6.96875 -42.015625 Z M 35.9375 -42.015625 "/></g></g></g><g fill="#ffffff" fill-opacity="1"><g transform="translate(130.931282, 61.240158)"><g><path d="M 20.890625 -42.015625 L 17.4375 -19.828125 C 17.101562 -17.828125 16.9375 -16.195312 16.9375 -14.9375 C 16.9375 -12.8125 17.390625 -11.203125 18.296875 -10.109375 C 19.210938 -9.015625 20.785156 -8.46875 23.015625 -8.46875 C 25.722656 -8.46875 27.789062 -9.347656 29.21875 -11.109375 C 30.65625 -12.878906 31.648438 -15.660156 32.203125 -19.453125 L 35.71875 -42.015625 L 46.640625 -42.015625 L 42.84375 -17.828125 C 42.101562 -12.921875 40.820312 -9.1875 39 -6.625 C 37.175781 -4.0625 34.75 -2.128906 31.71875 -0.828125 C 28.695312 0.460938 25.289062 1.109375 21.5 1.109375 C 16.375 1.109375 12.4375 0.00390625 9.6875 -2.203125 C 6.945312 -4.410156 5.578125 -7.632812 5.578125 -11.875 C 5.578125 -12.644531 5.613281 -13.492188 5.6875 -14.421875 C 5.757812 -15.359375 7.1875 -24.554688 9.96875 -42.015625 Z M 20.890625 -42.015625 "/></g></g></g><g fill="#ffffff" fill-opacity="1"><g transform="translate(168.367699, 61.240158)"><g><path d="M 25.734375 -42.015625 C 29.234375 -42.015625 32.363281 -41.242188 35.125 -39.703125 C 37.894531 -38.160156 40.066406 -36.03125 41.640625 -33.3125 C 43.222656 -30.601562 44.015625 -27.707031 44.015625 -24.625 C 44.015625 -20.394531 42.875 -16.375 40.59375 -12.5625 C 38.3125 -8.757812 35.21875 -5.710938 31.3125 -3.421875 C 27.414062 -1.140625 23.347656 0 19.109375 0 L 3.5625 0 L 10.203125 -42.015625 Z M 15.9375 -9.25 L 18.046875 -9.25 C 22.472656 -9.25 25.992188 -10.554688 28.609375 -13.171875 C 31.234375 -15.796875 32.546875 -19.1875 32.546875 -23.34375 C 32.546875 -26.164062 31.660156 -28.441406 29.890625 -30.171875 C 28.128906 -31.898438 25.503906 -32.765625 22.015625 -32.765625 L 19.671875 -32.765625 Z M 15.9375 -9.25 "/></g></g></g><g fill="#ffffff" fill-opacity="1"><g transform="translate(204.355673, 61.240158)"><g><path d="M 21.125 -42.015625 L 14.484375 0 L 3.5625 0 L 10.203125 -42.015625 Z M 21.125 -42.015625 "/></g></g></g><g fill="#ffffff" fill-opacity="1"><g transform="translate(216.49984, 61.240158)"><g><path d="M 51.65625 -25.078125 C 51.65625 -21.023438 50.484375 -16.828125 48.140625 -12.484375 C 45.796875 -8.140625 42.488281 -4.738281 38.21875 -2.28125 C 33.945312 0.164062 29.359375 1.390625 24.453125 1.390625 C 18.546875 1.390625 13.753906 -0.34375 10.078125 -3.8125 C 6.398438 -7.289062 4.5625 -11.867188 4.5625 -17.546875 C 4.5625 -22.234375 5.796875 -26.550781 8.265625 -30.5 C 10.742188 -34.457031 14.109375 -37.597656 18.359375 -39.921875 C 22.609375 -42.242188 27 -43.40625 31.53125 -43.40625 C 35.132812 -43.40625 38.503906 -42.625 41.640625 -41.0625 C 44.785156 -39.5 47.238281 -37.332031 49 -34.5625 C 50.769531 -31.800781 51.65625 -28.640625 51.65625 -25.078125 Z M 26.125 -9.1875 C 28.65625 -9.1875 30.988281 -9.882812 33.125 -11.28125 C 35.257812 -12.675781 36.957031 -14.476562 38.21875 -16.6875 C 39.488281 -18.894531 40.125 -21.078125 40.125 -23.234375 C 40.125 -25.910156 39.109375 -28.175781 37.078125 -30.03125 C 35.054688 -31.882812 32.632812 -32.8125 29.8125 -32.8125 C 27.613281 -32.8125 25.4375 -32.21875 23.28125 -31.03125 C 21.132812 -29.84375 19.398438 -28.242188 18.078125 -26.234375 C 16.765625 -24.234375 16.109375 -22.007812 16.109375 -19.5625 C 16.109375 -16.550781 17.046875 -14.066406 18.921875 -12.109375 C 20.796875 -10.160156 23.195312 -9.1875 26.125 -9.1875 Z M 26.125 -9.1875 "/></g></g></g><g fill="#000000" fill-opacity="1"><g transform="translate(33.666093, 65.341029)"><g><path d="M 38.796875 -47.796875 L 37.140625 -37.28125 L 22.375 -37.28125 L 21.109375 -29.28125 L 35.125 -29.28125 L 33.46875 -18.765625 L 19.46875 -18.765625 L 18.125 -10.515625 L 32.90625 -10.515625 L 31.25 0 L 4.0625 0 L 11.59375 -47.796875 Z M 38.796875 -47.796875 "/></g></g></g><g fill="#000000" fill-opacity="1"><g transform="translate(61.805521, 65.341029)"><g><path d="M 24.03125 -47.796875 L 18.125 -10.515625 L 33.03125 -10.515625 L 31.375 0 L 4.0625 0 L 11.59375 -47.796875 Z M 24.03125 -47.796875 "/></g></g></g></svg>